<?xml version="1.0" encoding="UTF-8"?>
<svg xmlns="http://www.w3.org/2000/svg" width="100" height="21" viewBox="0 0 100 21" fill="none">
  <g id="logo">
    <path id="Union" fill-rule="evenodd" clip-rule="evenodd" d="M76.8554 11.3913C76.8554 13.6994 78.3657 15.4632 80.6071 15.4632C82.2071 15.4632 83.0967 14.6984 83.7795 13.6374L85.7657 15.0016C84.6967 16.6758 82.9864 17.73 80.6002 17.73C77.0554 17.73 74.2347 15.036 74.2347 11.3844C74.2347 7.73273 77.0554 5.05945 80.6002 5.05945C82.8416 5.05945 84.4416 5.85868 85.5519 7.58804L83.6071 8.97291C83.0278 8.029 82.0278 7.35379 80.6071 7.35379C78.3657 7.35379 76.8554 9.08315 76.8554 11.3913ZM36.5105 10.1924L35.876 9.92372C34.7864 9.44831 34.3105 9.13827 34.3105 8.38038C34.3105 7.76029 34.7864 7.29178 35.5312 7.29178C36.2623 7.29178 36.7312 7.60182 37.1726 8.38038L39.1588 7.10575C38.3174 5.63131 37.1588 5.06634 35.5381 5.06634C33.2623 5.06634 31.8071 6.52011 31.8071 8.42861C31.8071 10.5025 33.0278 11.4808 34.8623 12.2663L35.4967 12.5419C36.6623 13.0517 37.3519 13.3618 37.3519 14.2299C37.3519 14.9602 36.676 15.4839 35.6209 15.4839C34.3657 15.4839 33.6554 14.8293 33.1105 13.9405L31.0347 15.1394C31.7795 16.6138 33.3105 17.7369 35.676 17.7369C38.0967 17.7369 39.8967 16.4829 39.8967 14.1886C39.8967 12.0665 38.676 11.1226 36.5105 10.1924ZM50.0622 9.6619C48.9174 9.6619 48.0622 10.1924 47.4209 10.9917C46.945 10.0822 46.2416 9.6619 45.2347 9.6619C44.3036 9.6619 43.5795 10.0822 43.0347 11.0261L43.0898 9.82726H40.6347V17.5715H43.0898V13.4238C43.0898 12.3696 43.5243 11.8942 44.476 11.8942C45.4071 11.8942 45.676 12.3834 45.676 13.2929V17.5646H48.1105V13.4169C48.1105 12.3627 48.5312 11.8873 49.476 11.8873C50.4071 11.8873 50.6967 12.3765 50.6967 13.286V17.5577H53.1312V13.0655C53.1381 10.9572 52.014 9.6619 50.0622 9.6619ZM54.2416 10.9365C54.9726 10.2269 55.7864 9.6619 57.6071 9.6619C59.5933 9.6619 61.1036 10.7367 61.0967 13.1757V17.5784H58.6554L58.7105 16.5036C58.1312 17.3924 57.4554 17.7369 56.4209 17.7369C55.0071 17.7369 53.6967 17.0961 53.6967 15.2978C53.6967 13.6443 54.9519 12.9691 56.8623 12.9691H58.6623C58.6278 12.0803 58.1933 11.6806 57.3726 11.6806C56.4416 11.6806 55.9519 12.0803 55.6071 12.3903L54.2416 10.9365ZM57.1519 15.8284C58.1519 15.8284 58.6623 15.3943 58.6623 14.7398V14.4297H56.9864C56.3657 14.4297 56.0967 14.7053 56.0967 15.1394C56.0967 15.5734 56.4622 15.8284 57.1519 15.8284ZM71.4622 15.6837C71.0829 15.6837 70.8278 15.5183 70.8278 14.7398V11.8667H72.814V9.82725H70.8278V5.78977H68.3864V9.82725C68.145 9.82725 68.064 9.82381 67.9829 9.82036C67.9019 9.81692 67.8209 9.81347 67.5795 9.81347C67.2209 9.81347 66.8553 9.81347 66.4967 9.82725C66.3864 9.82725 66.2829 9.83414 66.1726 9.84792C65.676 9.91682 65.2209 10.1442 64.9036 10.53C64.8209 10.6334 64.7519 10.7436 64.6829 10.8538C64.6484 10.9159 64.614 10.9779 64.5864 11.0399C64.5829 11.046 64.5788 11.0528 64.5744 11.06L64.565 11.0754C64.535 11.1245 64.4953 11.1894 64.4898 11.2328L64.5243 9.83414H62.0691V17.5784H64.5243V14.1403C64.5243 13.9486 64.5273 13.9172 64.5354 13.8336C64.5395 13.791 64.5449 13.735 64.5519 13.6374C64.5726 13.3687 64.7174 13.0311 64.8485 12.8037C65.0278 12.4799 65.3312 12.2663 65.6622 12.1216C66.2416 11.8804 66.8829 11.8598 67.4967 11.8598C67.614 11.8598 67.7295 11.8615 67.845 11.8632L67.8451 11.8632C67.9606 11.8649 68.0761 11.8667 68.1933 11.8667H68.2829H68.3795V14.664C68.3795 16.9928 69.5105 17.7713 71.076 17.7713C72.2071 17.7713 72.8622 17.3717 73.2416 17.0616L72.3174 15.353L72.2748 15.3817C72.1043 15.4974 71.8299 15.6837 71.4622 15.6837ZM89.9381 9.6619C88.1174 9.6619 87.2967 10.2269 86.5726 10.9365L87.9381 12.3903C88.2829 12.0803 88.7726 11.6806 89.7036 11.6806C90.5243 11.6806 90.9588 12.0803 90.9933 12.9691H89.1933C87.2829 12.9691 86.0278 13.6443 86.0278 15.2978C86.0278 17.0961 87.3381 17.7369 88.7588 17.7369C89.7933 17.7369 90.4691 17.3924 91.0553 16.5036L91.0002 17.5784H93.4415V13.1757C93.4346 10.7367 91.9243 9.6619 89.9381 9.6619ZM90.9933 14.7398C90.9933 15.3943 90.4829 15.8284 89.4829 15.8284C88.7933 15.8284 88.4278 15.5734 88.4278 15.1394C88.4278 14.7053 88.7036 14.4297 89.3174 14.4297H90.9933V14.7398ZM98.9369 15.3817C98.9519 15.3715 98.9661 15.3619 98.9795 15.353L99.9105 17.0616C99.5312 17.3717 98.876 17.7713 97.745 17.7713C96.1795 17.7713 95.0485 16.9928 95.0485 14.664V11.8667H93.9036V9.82725H95.0485V5.78977H97.4898V9.82725H99.476V11.8667H97.4898V14.7398C97.4898 15.5183 97.745 15.6837 98.1243 15.6837C98.492 15.6837 98.7664 15.4974 98.9369 15.3817Z" fill="black"></path>
    <g id="Group">
      <path id="Vector" d="M12.8757 20.169L12.5308 20.4653L6.63428 5.61066H19.8826L12.8757 20.169Z" fill="#1072BA"></path>
      <path id="Vector_2" d="M4.94483 0.512115L0 14.5744L12.531 20.4653L4.94483 0.512115Z" fill="#249FDA"></path>
      <path id="Vector_3" d="M20.1244 0.512115L12.5312 20.4653L25.0692 14.5744L20.1244 0.512115Z" fill="#249FDA"></path>
    </g>
  </g>
</svg>
